<?xml version="1.0" encoding="utf-8"?>
<!-- Generator: Adobe Illustrator 27.0.0, SVG Export Plug-In . SVG Version: 6.00 Build 0)  -->
<svg version="1.1" id="Layer_1" xmlns="http://www.w3.org/2000/svg" xmlns:xlink="http://www.w3.org/1999/xlink" x="0px" y="0px"
	 viewBox="0 0 217 237" style="enable-background:new 0 0 217 237;" xml:space="preserve">
<style type="text/css">
	.st0{fill-rule:evenodd;clip-rule:evenodd;fill:#972DC2;}
	.st1{filter:url(#Adobe_OpacityMaskFilter);}
	.st2{fill-rule:evenodd;clip-rule:evenodd;fill:#FFFFFF;}
	.st3{mask:url(#mask-2_00000081633396227686275920000000902553541321782681_);}
	.st4{fill-rule:evenodd;clip-rule:evenodd;fill:#27B24A;}
	.st5{filter:url(#Adobe_OpacityMaskFilter_00000018203719576670996000000004026025372624249261_);}
	.st6{mask:url(#mask-4_00000065775612586555275580000001466011063002629006_);}
	.st7{fill-rule:evenodd;clip-rule:evenodd;fill:#D0C6AC;}
	.st8{filter:url(#Adobe_OpacityMaskFilter_00000021806694320210498360000000090494293279520399_);}
	.st9{mask:url(#mask-6_00000042734740092405908770000014436666397751748738_);}
	.st10{fill-rule:evenodd;clip-rule:evenodd;fill:#FFDBB4;}
	.st11{filter:url(#Adobe_OpacityMaskFilter_00000170963542029485709360000009524751623398071987_);}
	
		.st12{mask:url(#mask-6_00000058555584933881450220000013113759414296564151_);fill-rule:evenodd;clip-rule:evenodd;fill-opacity:0.1;}
	.st13{fill-rule:evenodd;clip-rule:evenodd;fill:#B7C1DB;}
	.st14{filter:url(#Adobe_OpacityMaskFilter_00000062875634917403643930000001287450570169045653_);}
	.st15{mask:url(#mask-8_00000081622892017308377360000017675549361884426405_);}
	.st16{fill-rule:evenodd;clip-rule:evenodd;fill:#113D1B;}
	.st17{filter:url(#Adobe_OpacityMaskFilter_00000040540798473639852460000007726932661384666815_);}
	.st18{mask:url(#mask-8_00000068651938341076765730000001536712840477717929_);fill-rule:evenodd;clip-rule:evenodd;fill:#F4F4F4;}
	.st19{filter:url(#Adobe_OpacityMaskFilter_00000072247388814103970120000003942689583366081466_);}
	
		.st20{mask:url(#mask-8_00000087388063520237760590000004871429279744722343_);fill-rule:evenodd;clip-rule:evenodd;fill-opacity:0.16;}
	.st21{fill-rule:evenodd;clip-rule:evenodd;fill-opacity:0.7;}
	.st22{filter:url(#Adobe_OpacityMaskFilter_00000022557446464459896810000004399429051781573801_);}
	.st23{mask:url(#mask-10_00000024705282907836272860000007915339390007295902_);fill-rule:evenodd;clip-rule:evenodd;fill:#FFFFFF;}
	.st24{filter:url(#Adobe_OpacityMaskFilter_00000013879051225100253560000004791393656310641076_);}
	.st25{mask:url(#mask-10_00000061431255221975429040000002855223660621371046_);}
	.st26{fill-rule:evenodd;clip-rule:evenodd;fill:#FF4F6D;}
	.st27{fill-rule:evenodd;clip-rule:evenodd;fill-opacity:0.16;}
	.st28{fill-rule:evenodd;clip-rule:evenodd;fill-opacity:0.6;}
	.st29{filter:url(#Adobe_OpacityMaskFilter_00000070081094528208923970000012066753712010225582_);}
	.st30{mask:url(#mask-12_00000100366120046288026900000007311186493567358102_);}
	.st31{fill-rule:evenodd;clip-rule:evenodd;fill:#1F3140;}
	.st32{filter:url(#Adobe_OpacityMaskFilter_00000181786408108674931550000013502684914678690751_);}
	.st33{mask:url(#mask-14_00000172412358102071703150000004107135812996212869_);}
	.st34{fill-rule:evenodd;clip-rule:evenodd;fill:#4A312C;}
</style>
<g id="Circle" transform="translate(10.800000, 36.000000)">
	<g id="Circle-Background">
		<circle id="path-1_00000032644093167160233630000015522318001334194356_" class="st0" cx="98" cy="93" r="108"/>
	</g>
	<defs>
		<filter id="Adobe_OpacityMaskFilter" filterUnits="userSpaceOnUse" x="-10" y="-15" width="216.4" height="216">
			<feColorMatrix  type="matrix" values="1 0 0 0 0  0 1 0 0 0  0 0 1 0 0  0 0 0 1 0"/>
		</filter>
	</defs>
	
		<mask maskUnits="userSpaceOnUse" x="-10" y="-15" width="216.4" height="216" id="mask-2_00000081633396227686275920000000902553541321782681_">
		<g class="st1">
			<circle id="path-1_00000129185156246561839280000016701838490692182699_" class="st2" cx="98" cy="93" r="108"/>
		</g>
	</mask>
	<g id="_xD83D__xDD8D_-Circle-Color" class="st3">
		<g>
			
				<rect id="_xD83D__xDD8D_Color_00000173148058193125030780000002350652718095871162_" x="-10" y="-15" class="st4" width="216.4" height="216"/>
		</g>
	</g>
</g>
<g id="Mask">
</g>
<defs>
	
		<filter id="Adobe_OpacityMaskFilter_00000077303087820942899690000006781102599147641481_" filterUnits="userSpaceOnUse" x="-10.2" y="-15" width="239.1" height="252.8">
		<feColorMatrix  type="matrix" values="1 0 0 0 0  0 1 0 0 0  0 0 1 0 0  0 0 0 1 0"/>
	</filter>
</defs>
<mask maskUnits="userSpaceOnUse" x="-10.2" y="-15" width="239.1" height="252.8" id="mask-4_00000065775612586555275580000001466011063002629006_">
	<g style="filter:url(#Adobe_OpacityMaskFilter_00000077303087820942899690000006781102599147641481_);">
		<path id="path-3_00000084508514271152515730000002351688537767417261_" class="st2" d="M-9.8,129V-15h237.6v144H217
			c0,59.6-48.4,108-108,108S1,188.7,1,129l0,0H-9.8z"/>
	</g>
</mask>
<g id="Avataaar" class="st6">
	<g id="Body" transform="translate(28.800000, 32.400000)">
		<g>
			<path id="path-5_00000180361924253763011200000015998016924013081217_" class="st7" d="M80.2-15c27.8,0,50.4,22.6,50.4,50.4
				l0,5.5c5.1,0.9,9,5.3,9,10.7v12.6c0,5.4-4,10-9.3,10.7c-1.9,17.8-13,32.9-28.5,40.3l0,16.6h3.6c35.8,0,64.8,29,64.8,64.8v8.1
				h-180v-8.1c0-35.8,29-64.8,64.8-64.8h3.6l0-16.6C43,107.8,31.9,92.7,30,74.9c-5.2-0.7-9.3-5.2-9.3-10.7V51.6
				c0-5.4,3.9-9.8,9-10.7l0-5.5C29.8,7.6,52.3-15,80.2-15z"/>
		</g>
		<defs>
			
				<filter id="Adobe_OpacityMaskFilter_00000142895351613560786830000001568021823018661807_" filterUnits="userSpaceOnUse" x="-38.6" y="-15" width="238.4" height="220.4">
				<feColorMatrix  type="matrix" values="1 0 0 0 0  0 1 0 0 0  0 0 1 0 0  0 0 0 1 0"/>
			</filter>
		</defs>
		
			<mask maskUnits="userSpaceOnUse" x="-38.6" y="-15" width="238.4" height="220.4" id="mask-6_00000042734740092405908770000014436666397751748738_">
			<g style="filter:url(#Adobe_OpacityMaskFilter_00000142895351613560786830000001568021823018661807_);">
				<path id="path-5_00000149367682093621327090000004112260330050090925_" class="st2" d="M80.2-15c27.8,0,50.4,22.6,50.4,50.4
					l0,5.5c5.1,0.9,9,5.3,9,10.7v12.6c0,5.4-4,10-9.3,10.7c-1.9,17.8-13,32.9-28.5,40.3l0,16.6h3.6c35.8,0,64.8,29,64.8,64.8v8.1
					h-180v-8.1c0-35.8,29-64.8,64.8-64.8h3.6l0-16.6C43,107.8,31.9,92.7,30,74.9c-5.2-0.7-9.3-5.2-9.3-10.7V51.6
					c0-5.4,3.9-9.8,9-10.7l0-5.5C29.8,7.6,52.3-15,80.2-15z"/>
			</g>
		</mask>
		<g id="Skin_x2F__xD83D__xDC76__xD83C__xDFFB_-05-Pale" class="st9">
			<g id="Color" transform="translate(-28.800000, 0.000000)">
				<rect x="-9.8" y="-15" class="st10" width="238.4" height="220.4"/>
			</g>
		</g>
		<defs>
			
				<filter id="Adobe_OpacityMaskFilter_00000093860627738326667680000016135390442992213126_" filterUnits="userSpaceOnUse" x="29.8" y="69.6" width="100.8" height="57.6">
				<feColorMatrix  type="matrix" values="1 0 0 0 0  0 1 0 0 0  0 0 1 0 0  0 0 0 1 0"/>
			</filter>
		</defs>
		
			<mask maskUnits="userSpaceOnUse" x="29.8" y="69.6" width="100.8" height="57.6" id="mask-6_00000058555584933881450220000013113759414296564151_">
			<g style="filter:url(#Adobe_OpacityMaskFilter_00000093860627738326667680000016135390442992213126_);">
				<path id="path-5_00000009553779909072454950000005307264830978514106_" class="st2" d="M80.2-15c27.8,0,50.4,22.6,50.4,50.4
					l0,5.5c5.1,0.9,9,5.3,9,10.7v12.6c0,5.4-4,10-9.3,10.7c-1.9,17.8-13,32.9-28.5,40.3l0,16.6h3.6c35.8,0,64.8,29,64.8,64.8v8.1
					h-180v-8.1c0-35.8,29-64.8,64.8-64.8h3.6l0-16.6C43,107.8,31.9,92.7,30,74.9c-5.2-0.7-9.3-5.2-9.3-10.7V51.6
					c0-5.4,3.9-9.8,9-10.7l0-5.5C29.8,7.6,52.3-15,80.2-15z"/>
			</g>
		</mask>
		<path id="Neck-Shadow" class="st12" d="M29.8,69.6c0,27.8,22.6,50.4,50.4,50.4s50.4-22.6,50.4-50.4l0,0v7.2
			c0,27.8-22.6,50.4-50.4,50.4s-50.4-22.6-50.4-50.4V69.6z"/>
	</g>
	<g id="Clothing_x2F_Hoodie" transform="translate(0.000000, 153.000000)">
		<g id="Hoodie">
			<path id="path-7_00000016763672763002880890000002744467038683946429_" class="st13" d="M130.6-3.2c16.3,1.8,28.8,6.8,28.8,19.8
				l0-0.4C182.6,26,199,49.1,199,75.9V84H19v-8.1C19,49.1,35.3,26,58.6,16.2C58.8,3.5,71.2-1.4,87.4-3.2l0,17
				c0,11.9,9.7,21.6,21.6,21.6s21.6-9.7,21.6-21.6l0,0L130.6-3.2z"/>
		</g>
		<defs>
			
				<filter id="Adobe_OpacityMaskFilter_00000170989860257159576630000014314734503410269568_" filterUnits="userSpaceOnUse" x="-9.8" y="-15" width="238.5" height="99">
				<feColorMatrix  type="matrix" values="1 0 0 0 0  0 1 0 0 0  0 0 1 0 0  0 0 0 1 0"/>
			</filter>
		</defs>
		
			<mask maskUnits="userSpaceOnUse" x="-9.8" y="-15" width="238.5" height="99" id="mask-8_00000081622892017308377360000017675549361884426405_">
			<g style="filter:url(#Adobe_OpacityMaskFilter_00000170989860257159576630000014314734503410269568_);">
				<path id="path-7_00000109725668014614578180000011358386893010395265_" class="st2" d="M130.6-3.2c16.3,1.8,28.8,6.8,28.8,19.8
					l0-0.4C182.6,26,199,49.1,199,75.9V84H19v-8.1C19,49.1,35.3,26,58.6,16.2C58.8,3.5,71.2-1.4,87.4-3.2l0,17
					c0,11.9,9.7,21.6,21.6,21.6s21.6-9.7,21.6-21.6l0,0L130.6-3.2z"/>
			</g>
		</mask>
		<g id="Color_x2F_Palette_x2F_Slate" class="st15">
			<g>
				
					<rect id="_xD83D__xDD8D_Color_00000034795871542902542290000015695352212737840525_" x="-9.8" y="-15" class="st16" width="238.5" height="99"/>
			</g>
		</g>
		<defs>
			
				<filter id="Adobe_OpacityMaskFilter_00000147921871792280026860000002049508643067790211_" filterUnits="userSpaceOnUse" x="75.7" y="37.3" width="66.6" height="46.7">
				<feColorMatrix  type="matrix" values="1 0 0 0 0  0 1 0 0 0  0 0 1 0 0  0 0 0 1 0"/>
			</filter>
		</defs>
		
			<mask maskUnits="userSpaceOnUse" x="75.7" y="37.3" width="66.6" height="46.7" id="mask-8_00000068651938341076765730000001536712840477717929_">
			<g style="filter:url(#Adobe_OpacityMaskFilter_00000147921871792280026860000002049508643067790211_);">
				<path id="path-7_00000131330802506337201460000007885595134661124012_" class="st2" d="M130.6-3.2c16.3,1.8,28.8,6.8,28.8,19.8
					l0-0.4C182.6,26,199,49.1,199,75.9V84H19v-8.1C19,49.1,35.3,26,58.6,16.2C58.8,3.5,71.2-1.4,87.4-3.2l0,17
					c0,11.9,9.7,21.6,21.6,21.6s21.6-9.7,21.6-21.6l0,0L130.6-3.2z"/>
			</g>
		</mask>
		<path id="Straps" class="st18" d="M82,40.6L82,84h-6.3l0-46.7C77.6,38.5,79.7,39.6,82,40.6z M142.3,37.3l0,36.3
			c0,1.7-1.4,3.2-3.2,3.2s-3.1-1.4-3.1-3.2l0-33.1C138.2,39.6,140.3,38.5,142.3,37.3z"/>
		<defs>
			
				<filter id="Adobe_OpacityMaskFilter_00000151538535786987586360000004196049234022789525_" filterUnits="userSpaceOnUse" x="49.1" y="-3.5" width="119.7" height="49.7">
				<feColorMatrix  type="matrix" values="1 0 0 0 0  0 1 0 0 0  0 0 1 0 0  0 0 0 1 0"/>
			</filter>
		</defs>
		
			<mask maskUnits="userSpaceOnUse" x="49.1" y="-3.5" width="119.7" height="49.7" id="mask-8_00000087388063520237760590000004871429279744722343_">
			<g style="filter:url(#Adobe_OpacityMaskFilter_00000151538535786987586360000004196049234022789525_);">
				<path id="path-7_00000085210520395271740380000015192436912800206264_" class="st2" d="M130.6-3.2c16.3,1.8,28.8,6.8,28.8,19.8
					l0-0.4C182.6,26,199,49.1,199,75.9V84H19v-8.1C19,49.1,35.3,26,58.6,16.2C58.8,3.5,71.2-1.4,87.4-3.2l0,17
					c0,11.9,9.7,21.6,21.6,21.6s21.6-9.7,21.6-21.6l0,0L130.6-3.2z"/>
			</g>
		</mask>
		<path id="Shadow" class="st20" d="M145.9-3.5c13.5,2.6,22.9,7.7,22.9,17.6c0,17.7-29.7,32.1-59.8,32.1S49.1,31.8,49.1,14.1
			C49.1,4.1,58.5-1,72-3.5c-8.2,3-13.5,8.1-13.5,16.5c0,18.4,25,33.2,50.4,33.2s50.4-14.9,50.4-33.2c0-8.3-5.1-13.3-13-16.3
			L145.9-3.5z"/>
	</g>
	<g id="Face" transform="translate(68.400000, 73.800000)">
		<g id="Mouth_x2F_Smile" transform="translate(1.800000, 46.800000)">
			<g id="Mouth">
				<path id="path-9_00000107556881439725154930000005261514466098580382_" class="st21" d="M21.8-1.4c1,8.5,8.2,15.2,17,15.2
					c8.8,0,16.1-6.7,17-15.3c0.1-0.7-0.7-1.8-1.7-1.8c-13.4,0-23.7,0-30.6,0C22.6-3.3,21.7-2.2,21.8-1.4z"/>
			</g>
			<defs>
				
					<filter id="Adobe_OpacityMaskFilter_00000000922455060529071380000007215032933036779675_" filterUnits="userSpaceOnUse" x="25.3" y="-13.2" width="27.9" height="14.4">
					<feColorMatrix  type="matrix" values="1 0 0 0 0  0 1 0 0 0  0 0 1 0 0  0 0 0 1 0"/>
				</filter>
			</defs>
			
				<mask maskUnits="userSpaceOnUse" x="25.3" y="-13.2" width="27.9" height="14.4" id="mask-10_00000024705282907836272860000007915339390007295902_">
				<g style="filter:url(#Adobe_OpacityMaskFilter_00000000922455060529071380000007215032933036779675_);">
					<path id="path-9_00000056420587780213578410000007474655816152268721_" class="st2" d="M21.8-1.4c1,8.5,8.2,15.2,17,15.2
						c8.8,0,16.1-6.7,17-15.3c0.1-0.7-0.7-1.8-1.7-1.8c-13.4,0-23.7,0-30.6,0C22.6-3.3,21.7-2.2,21.8-1.4z"/>
				</g>
			</mask>
			<path id="Teeth" class="st23" d="M29.8-13.2h18.9c2.5,0,4.5,2,4.5,4.5v5.4c0,2.5-2,4.5-4.5,4.5H29.8c-2.5,0-4.5-2-4.5-4.5v-5.4
				C25.3-11.2,27.3-13.2,29.8-13.2z"/>
			<defs>
				
					<filter id="Adobe_OpacityMaskFilter_00000139269371303692750500000016886157457548982426_" filterUnits="userSpaceOnUse" x="24.4" y="6.6" width="28.8" height="19.8">
					<feColorMatrix  type="matrix" values="1 0 0 0 0  0 1 0 0 0  0 0 1 0 0  0 0 0 1 0"/>
				</filter>
			</defs>
			
				<mask maskUnits="userSpaceOnUse" x="24.4" y="6.6" width="28.8" height="19.8" id="mask-10_00000061431255221975429040000002855223660621371046_">
				<g style="filter:url(#Adobe_OpacityMaskFilter_00000139269371303692750500000016886157457548982426_);">
					<path id="path-9_00000171720834924383426390000001272901792092542861_" class="st2" d="M21.8-1.4c1,8.5,8.2,15.2,17,15.2
						c8.8,0,16.1-6.7,17-15.3c0.1-0.7-0.7-1.8-1.7-1.8c-13.4,0-23.7,0-30.6,0C22.6-3.3,21.7-2.2,21.8-1.4z"/>
				</g>
			</mask>
			<g id="Tongue" class="st25">
				<g transform="translate(34.200000, 21.600000)">
					<circle class="st26" cx="0.1" cy="-5.1" r="9.9"/>
					<circle class="st26" cx="9.1" cy="-5.1" r="9.9"/>
				</g>
			</g>
		</g>
		<g id="Nose_x2F_Default" transform="translate(25.200000, 36.000000)">
			<path id="Nose" class="st27" d="M4.6-7.8c0,4,4.8,7.2,10.8,7.2l0,0c6,0,10.8-3.2,10.8-7.2"/>
		</g>
		<g id="Eyes_x2F_Happy-_xD83D__xDE01_" transform="translate(0.000000, 7.200000)">
			<path id="Squint" class="st28" d="M4.7,5.2c1.7-3.4,5.4-5.8,9.8-5.8c4.3,0,8.1,2.4,9.7,5.8c0.5,1-0.2,1.8-0.9,1.2
				c-2.2-1.9-5.3-3.1-8.8-3.1c-3.4,0-6.4,1.1-8.6,2.9C5,6.9,4.2,6.2,4.7,5.2z"/>
			<path id="Squint_00000081645500472966115740000014864480816784460425_" class="st28" d="M56.9,5.2c1.7-3.4,5.4-5.8,9.8-5.8
				c4.3,0,8.1,2.4,9.7,5.8c0.5,1-0.2,1.8-0.9,1.2c-2.2-1.9-5.3-3.1-8.8-3.1c-3.4,0-6.4,1.1-8.6,2.9C57.2,6.9,56.4,6.2,56.9,5.2z"/>
		</g>
		<g id="Eyebrow_x2F_Natural_x2F_Default-Natural">
			<path id="Eyebrow" class="st28" d="M14-9.5C8.8-9.2,0.4-5.4,0.6-0.2C0.6,0,0.9,0.1,1,0C3.5-2.7,21.1-5.4,27.3-4
				c0.6,0.1,1-0.4,0.6-0.8C24.8-8.3,18.7-9.7,14-9.5"/>
			<path id="Eyebrow_00000124156050011074576170000016988958425564968127_" class="st28" d="M68-9.5c5.2,0.2,13.7,4,13.5,9.3
				C81.4,0,81.2,0.1,81,0C78.6-2.7,61-5.4,54.8-4c-0.6,0.1-1-0.4-0.6-0.8C57.2-8.3,63.3-9.7,68-9.5"/>
		</g>
	</g>
	<g id="Top">
		<g id="Mask_00000003078193096318789740000015757602780796473221_">
		</g>
		<defs>
			
				<filter id="Adobe_OpacityMaskFilter_00000098183776177923149940000017320946692763528088_" filterUnits="userSpaceOnUse" x="-10.2" y="-15" width="239.1" height="252.4">
				<feColorMatrix  type="matrix" values="1 0 0 0 0  0 1 0 0 0  0 0 1 0 0  0 0 0 1 0"/>
			</filter>
		</defs>
		
			<mask maskUnits="userSpaceOnUse" x="-10.2" y="-15" width="239.1" height="252.4" id="mask-12_00000100366120046288026900000007311186493567358102_">
			<g style="filter:url(#Adobe_OpacityMaskFilter_00000098183776177923149940000017320946692763528088_);">
				
					<rect id="path-11_00000011709981887096319060000001052372834608677541_" x="-9.8" y="-15" class="st2" width="237.6" height="252"/>
			</g>
		</mask>
		<g class="st30">
			<g transform="translate(43.000000, 15.000000)">
				<g id="Short-Hair">
					<path id="path-13_00000060019708888768182610000002042494540641183108_" class="st31" d="M108.3,5.9c-2.5-2.5-5.4-4.7-8.2-6.9
						c-0.6-0.5-1.2-0.9-1.9-1.4c-0.1-0.1-1.5-1.1-1.7-1.5c-0.4-0.9-0.2-0.2-0.1-1.3c0.1-1.3,2.8-5.2,0.8-6c-0.9-0.4-2.5,0.6-3.4,1
						c-1.7,0.7-3.4,1.2-5.2,1.7c0.8-1.7,2.4-5-0.6-4.1c-2.3,0.7-4.5,2.5-6.9,3.3c0.8-1.3,3.9-5.2,1.1-5.5c-0.9-0.1-3.4,1.6-4.4,1.9
						c-2.8,1-5.7,1.7-8.7,2.3C59.2-8.7,47.4-9.2,38.1-4.6c-7.2,3.5-14.3,9-18.4,16c-4,6.7-5.5,14.1-6.3,21.8
						c-0.6,5.7-0.7,11.5-0.4,17.2c0.1,1.9,0.3,10.4,3,7.8c1.3-1.3,1.3-6.5,1.7-8.3c0.7-3.5,1.3-7.1,2.5-10.5c2-6,4.3-8.8,9.3-13
						c3.2-2.7,5.4-6.2,8.4-8.9c1.4-1.2,0.3-1.1,2.5-0.9c1.5,0.1,3,0.1,4.4,0.2C48.1,17,51.6,17,55,17c6.9,0,13.7,0.1,20.6-0.2
						c3.1-0.2,6.1-0.2,9.2-0.5c1.7-0.2,4.7-1.2,6.1-0.4c1.3,0.8,2.6,3.3,3.5,4.3c2.2,2.4,4.8,4.3,7.3,6.2c5.3,4.1,8,5.7,9.6,12.1
						c1.6,6.4,1.2,12.4,3.1,18.7c0.3,1.1,1.3,3,2.4,1.3c0.2-0.3,0.2-2.1,0.2-3.1c0-4.1,1-7.1,1-11.2C118,31.7,117.6,15.4,108.3,5.9z
						"/>
				</g>
				<defs>
					
						<filter id="Adobe_OpacityMaskFilter_00000055704587506553337850000006413770528294204319_" filterUnits="userSpaceOnUse" x="-53.2" y="-30" width="239.1" height="252.4">
						<feColorMatrix  type="matrix" values="1 0 0 0 0  0 1 0 0 0  0 0 1 0 0  0 0 0 1 0"/>
					</filter>
				</defs>
				
					<mask maskUnits="userSpaceOnUse" x="-53.2" y="-30" width="239.1" height="252.4" id="mask-14_00000172412358102071703150000004107135812996212869_">
					<g style="filter:url(#Adobe_OpacityMaskFilter_00000055704587506553337850000006413770528294204319_);">
						<path id="path-13_00000111893327917364068730000015161057988035371417_" class="st2" d="M108,5.9c-2.5-2.5-5.4-4.7-8.2-6.9
							c-0.6-0.5-1.2-0.9-1.9-1.4c-0.1-0.1-1.5-1.1-1.7-1.5c-0.4-0.9-0.2-0.2-0.1-1.3c0.1-1.3,2.8-5.2,0.8-6c-0.9-0.4-2.5,0.6-3.4,1
							c-1.7,0.7-3.4,1.2-5.2,1.7c0.8-1.7,2.4-5-0.6-4.1c-2.3,0.7-4.5,2.5-6.9,3.3c0.8-1.3,3.9-5.2,1.1-5.5c-0.9-0.1-3.4,1.6-4.4,1.9
							c-2.8,1-5.7,1.7-8.7,2.3C58.9-8.7,47.1-9.2,37.8-4.6c-7.2,3.5-14.3,9-18.4,16c-4,6.7-5.5,14.1-6.3,21.8
							c-0.6,5.7-0.7,11.5-0.4,17.2c0.1,1.9,0.3,10.4,3,7.8C17,57,17,51.8,17.4,50c0.7-3.5,1.3-7.1,2.5-10.5c2-6,4.3-8.8,9.3-13
							c3.2-2.7,5.4-6.2,8.4-8.9c1.4-1.2,0.3-1.1,2.5-0.9c1.5,0.1,3,0.1,4.4,0.2C47.9,17,51.3,17,54.7,17c6.9,0,13.7,0.1,20.6-0.2
							c3.1-0.2,6.1-0.2,9.2-0.5c1.7-0.2,4.7-1.2,6.1-0.4c1.3,0.8,2.6,3.3,3.5,4.3c2.2,2.4,4.8,4.3,7.3,6.2c5.3,4.1,8,5.7,9.6,12.1
							c1.6,6.4,1.2,12.4,3.1,18.7c0.3,1.1,1.3,3,2.4,1.3c0.2-0.3,0.2-2.1,0.2-3.1c0-4.1,1-7.1,1-11.2C117.7,31.7,117.3,15.4,108,5.9
							z"/>
					</g>
				</mask>
				<g id="Color_x2F_Hair_x2F_Brown-Dark" class="st33">
					<g id="Color_00000160907524489817304950000001553736357349922196_" transform="translate(-43.100000, -15.000000)">
						<rect x="-10.1" y="-15" class="st34" width="239.1" height="252.4"/>
					</g>
				</g>
			</g>
		</g>
	</g>
</g>
</svg>
